<svg height="57" viewBox="0 0 244 57" width="244" xmlns="http://www.w3.org/2000/svg"><g fill="none" fill-rule="evenodd" transform="translate(0 -3.100505)"><path d="m0 10.100505h244v50h-244z" fill="#191c21"/><g fill="#292d34"><path d="m0 10.100505h2v50h-2z"/><path d="m22 10.100505h2v50h-2z"/><path d="m110 10.100505h2v50h-2z"/><path d="m198 10.100505h2v50h-2z"/><path d="m44 10.100505h2v50h-2z"/><path d="m132 10.100505h2v50h-2z"/><path d="m220 10.100505h2v50h-2z"/><path d="m66 10.100505h2v50h-2z"/><path d="m154 10.100505h2v50h-2z"/><path d="m242 10.100505h2v50h-2z"/><path d="m88 10.100505h2v50h-2z"/><path d="m176 10.100505h2v50h-2z"/></g><g fill="#46b8d5"><path d="m0 20.100505h88v40h-88z" opacity=".2"/><path d="m0 10.100505h88v10h-88z"/></g><g fill="#a646d5" opacity=".7"><path d="m88 20.100505h22v40h-22z" opacity=".2"/><path d="m88 10.100505h22v10h-22z"/></g><g fill="#a646d5" opacity=".32"><path d="m132 20.100505h22v40h-22z" opacity=".2"/><path d="m132 10.100505h22v10h-22z"/></g><g fill="#d5af46" opacity=".1"><path d="m154 20.100505h44v40h-44z" opacity=".2"/><path d="m154 10.100505h44v10h-44z"/></g><path d="m155.899495 12.1666667-4.949748 2.7830808 2.783081-4.9497475-2.783081-4.94974747 4.949748 2.7830808 4.949747-2.7830808-2.78308 4.94974747 2.78308 4.9497475z" fill="#46b8d5" transform="matrix(.70710678 -.70710678 .70710678 .70710678 38.590837 113.166522)"/><path d="m186.899495 41.1666667-4.949748 2.7830808 2.783081-4.9497475-2.783081-4.9497475 4.949748 2.7830808 4.949747-2.7830808-2.78308 4.9497475 2.78308 4.9497475z" fill="#d5af46" transform="matrix(.70710678 -.70710678 .70710678 .70710678 27.16443 143.580736)"/><path d="m220.899495 12.1666667-4.949748 2.7830808 2.783081-4.9497475-2.783081-4.94974747 4.949748 2.7830808 4.949747-2.7830808-2.78308 4.94974747 2.78308 4.9497475z" fill="#a646d5" transform="matrix(.70710678 -.70710678 .70710678 .70710678 57.628896 159.128463)"/></g></svg>