<svg height="236" viewBox="0 0 298 236" width="298" xmlns="http://www.w3.org/2000/svg"><g fill="none" fill-rule="evenodd"><path d="m58 57h198v128h-198z" stroke="#292d34" stroke-width="2"/><path d="m18 27h198v128h-198z" opacity=".45" stroke="#292d34" stroke-width="2"/><g transform="translate(98 84)"><g stroke="#6b7187"><path d="m1 1h198v128h-198z" fill="#191c21" stroke-width="2"/><circle cx="20" cy="27" r="7" stroke-width="2"/><circle cx="48" cy="27" r="7" stroke-width="2"/><circle cx="20" cy="55" r="7" stroke-width="2"/><circle cx="104" cy="92" r="7" stroke-width="2"/><circle cx="104" cy="110" r="7" stroke-width="2"/><circle cx="178" cy="110" r="7" stroke-width="2"/><circle cx="178" cy="92" r="7" stroke-width="2"/><circle cx="16.5" cy="87.5" r="3.5" stroke-width="2"/><circle cx="29.5" cy="87.5" r="3.5" stroke-width="2"/><circle cx="42.5" cy="87.5" r="3.5" stroke-width="2"/><circle cx="42.5" cy="100.5" r="3.5" stroke-width="2"/><circle cx="42.5" cy="113.5" r="3.5" stroke-width="2"/><circle cx="29.5" cy="100.5" r="3.5" stroke-width="2"/><circle cx="29.5" cy="113.5" r="3.5" stroke-width="2"/><circle cx="16.5" cy="100.5" r="3.5" stroke-width="2"/><circle cx="16.5" cy="113.5" r="3.5" stroke-width="2"/></g><path d="m0 0h200v5h-200z" fill="#6b7187"/><rect fill="#191c21" height="3" rx="1.5" width="3" x="2" y="1"/><rect fill="#191c21" height="3" rx="1.5" width="3" x="7" y="1"/><rect fill="#191c21" height="3" rx="1.5" width="3" x="12" y="1"/><path d="m45.1277704 48c-1.4746685 0-2.0337312.10796-2.6098629.4160786-.4775834.2554144-.8464145.6242455-1.1018289 1.1018289-.3081186.5761317-.4160786 1.1351944-.4160786 2.6098629v5.7444592c0 1.4746685.10796 2.0337312.4160786 2.6098629.2554144.4775834.6242455.8464145 1.1018289 1.1018289.5761317.3081186 1.1351944.4160786 2.6098629.4160786h30.7444592c1.4746685 0 2.0337312-.10796 2.6098629-.4160786.4775834-.2554144.8464145-.6242455 1.1018289-1.1018289.3081186-.5761317.4160786-1.1351944.4160786-2.6098629v-5.7444592c0-1.4746685-.10796-2.0337312-.4160786-2.6098629-.2554144-.4775834-.6242455-.8464145-1.1018289-1.1018289-.5761317-.3081186-1.1351944-.4160786-2.6098629-.4160786z" fill="#0b0c11" stroke="#6b7187" stroke-width="2"/><path d="m127.12777 86c-1.474668 0-2.033731.10796-2.609863.4160786-.477583.2554144-.846414.6242455-1.101828 1.1018289-.308119.5761317-.416079 1.1351944-.416079 2.6098629v22.7444596c0 1.474668.10796 2.033731.416079 2.609863.255414.477583.624245.846414 1.101828 1.101828.576132.308119 1.135195.416079 2.609863.416079h30.74446c1.474668 0 2.033731-.10796 2.609863-.416079.477583-.255414.846414-.624245 1.101828-1.101828.308119-.576132.416079-1.135195.416079-2.609863v-22.7444596c0-1.4746685-.10796-2.0337312-.416079-2.6098629-.255414-.4775834-.624245-.8464145-1.101828-1.1018289-.576132-.3081186-1.135195-.4160786-2.609863-.4160786z" fill="#0b0c11" stroke="#6b7187" stroke-width="2"/><circle cx="148" cy="102" r="4" stroke="#46b8d5" stroke-width="2"/><path d="m61.4386505 84c-.7811761 0-1.4086199.1421921-1.920743.4160786-.4775834.2554144-.8464145.6242455-1.1018289 1.1018289-.2738865.5121231-.4160786 1.1395669-.4160786 1.920743v.122699c0 .7811761.1421921 1.4086199.4160786 1.920743.2554144.4775834.6242455.8464145 1.1018289 1.1018289.5121231.2738865 1.1395669.4160786 1.920743.4160786h15.122699c.7811761 0 1.4086199-.1421921 1.920743-.4160786.4775834-.2554144.8464145-.6242455 1.1018289-1.1018289.2738865-.5121231.4160786-1.1395669.4160786-1.920743v-.122699c0-.7811761-.1421921-1.4086199-.4160786-1.920743-.2554144-.4775834-.6242455-.8464145-1.1018289-1.1018289-.5121231-.2738865-1.1395669-.4160786-1.920743-.4160786z" fill="#0b0c11" stroke="#6b7187" stroke-width="2"/><path d="m61.4386505 97c-.7811761 0-1.4086199.1421921-1.920743.4160786-.4775834.2554144-.8464145.6242455-1.1018289 1.1018289-.2738865.5121231-.4160786 1.1395669-.4160786 1.9207425v.1227c0 .781176.1421921 1.408619.4160786 1.920743.2554144.477583.6242455.846414 1.1018289 1.101828.5121231.273887 1.1395669.416079 1.920743.416079h15.122699c.7811761 0 1.4086199-.142192 1.920743-.416079.4775834-.255414.8464145-.624245 1.1018289-1.101828.2738865-.512124.4160786-1.139567.4160786-1.920743v-.1227c0-.7811756-.1421921-1.4086194-.4160786-1.9207425-.2554144-.4775834-.6242455-.8464145-1.1018289-1.1018289-.5121231-.2738865-1.1395669-.4160786-1.920743-.4160786z" fill="#0b0c11" stroke="#6b7187" stroke-width="2"/><path d="m61.4386505 110c-.7811761 0-1.4086199.142192-1.920743.416079-.4775834.255414-.8464145.624245-1.1018289 1.101828-.2738865.512124-.4160786 1.139567-.4160786 1.920743v.1227c0 .781176.1421921 1.408619.4160786 1.920743.2554144.477583.6242455.846414 1.1018289 1.101828.5121231.273887 1.1395669.416079 1.920743.416079h15.122699c.7811761 0 1.4086199-.142192 1.920743-.416079.4775834-.255414.8464145-.624245 1.1018289-1.101828.2738865-.512124.4160786-1.139567.4160786-1.920743v-.1227c0-.781176-.1421921-1.408619-.4160786-1.920743-.2554144-.477583-.6242455-.846414-1.1018289-1.101828-.5121231-.273887-1.1395669-.416079-1.920743-.416079z" fill="#0b0c11" stroke="#6b7187" stroke-width="2"/><path d="m101.12777 20c-1.4746681 0-2.0337308.10796-2.6098625.4160786-.4775834.2554144-.8464145.6242455-1.1018289 1.1018289-.3081186.5761317-.4160786 1.1351944-.4160786 2.6098629v33.7444592c0 1.4746685.10796 2.0337312.4160786 2.6098629.2554144.4775834.6242455.8464145 1.1018289 1.1018289.5761317.3081186 1.1351944.4160786 2.6098625.4160786h81.74446c1.474668 0 2.033731-.10796 2.609863-.4160786.477583-.2554144.846414-.6242455 1.101828-1.1018289.308119-.5761317.416079-1.1351944.416079-2.6098629v-33.7444592c0-1.4746685-.10796-2.0337312-.416079-2.6098629-.255414-.4775834-.624245-.8464145-1.101828-1.1018289-.576132-.3081186-1.135195-.4160786-2.609863-.4160786z" fill="#0b0c11" stroke="#6b7187" stroke-width="2"/><path d="m42 55h17.5c3.3333333 0 5 2 5 6" stroke="#a646d5" stroke-width="2"/><path d="m98 39h23c12 0 18 7.3333333 18 22" stroke="#46b8d5" stroke-width="2"/><path d="m145 39h23c12 0 18 7.3333333 18 22" stroke="#d5af46" stroke-width="2" transform="matrix(-1 0 0 1 331 0)"/></g><g fill="#6b7187"><path d="m137.5 0c1.104569 0 2 .8954305 2 2v20c0 1.1045695-.895431 2-2 2-1.104569 0-2-.8954305-2-2v-20c0-1.1045695.895431-2 2-2z"/><path d="m226.241901 36.758099c1.10457 0 2 .8954305 2 2v20c0 1.1045695-.89543 2-2 2-1.104569 0-2-.8954305-2-2v-20c0-1.1045695.895431-2 2-2z" transform="matrix(.70710678 .70710678 -.70710678 .70710678 100.741901 -145.696266)"/><path d="m48.758099 214.241901c1.1045695 0 2 .895431 2 2v20c0 1.10457-.8954305 2-2 2-1.1045695 0-2-.89543-2-2v-20c0-1.104569.8954305-2 2-2z" transform="matrix(-.70710678 -.70710678 .70710678 -.70710678 -76.741901 420.696266)"/><path d="m12 125.5c1.1045695 0 2 .895431 2 2v20c0 1.104569-.8954305 2-2 2-1.1045695 0-2-.895431-2-2v-20c0-1.104569.8954305-2 2-2z" transform="matrix(0 -1 1 0 -125.5 149.5)"/><path d="m48.758099 36.758099c1.1045695 0 2 .8954305 2 2v20c0 1.1045695-.8954305 2-2 2-1.1045695 0-2-.8954305-2-2v-20c0-1.1045695.8954305-2 2-2z" transform="matrix(.70710678 -.70710678 .70710678 .70710678 -20.196266 48.758099)"/></g></g></svg>