<svg height="196" viewBox="0 0 293 196" width="293" xmlns="http://www.w3.org/2000/svg" xmlns:xlink="http://www.w3.org/1999/xlink"><filter id="a" filterUnits="userSpaceOnUse" height="17.125" width="69.109" x="18.469" y="22.5"><feOffset dy="1"/><feGaussianBlur result="b" stdDeviation="1.5"/><feFlood flood-opacity=".161"/><feComposite in2="b" operator="in"/><feComposite in="SourceGraphic"/></filter><filter id="b" filterUnits="userSpaceOnUse" height="17.5" width="43.938" x="18.469" y="43.125"><feOffset dy="1"/><feGaussianBlur result="d" stdDeviation="1.5"/><feFlood flood-opacity=".161"/><feComposite in2="d" operator="in"/><feComposite in="SourceGraphic"/></filter><filter id="c" filterUnits="userSpaceOnUse" height="17.5" width="70.781" x="18.469" y="64.125"><feOffset dy="1"/><feGaussianBlur result="f" stdDeviation="1.5"/><feFlood flood-opacity=".161"/><feComposite in2="f" operator="in"/><feComposite in="SourceGraphic"/></filter><filter id="d" filterUnits="userSpaceOnUse" height="17.25" width="41" x="158.125" y="22.391"><feOffset dy="1"/><feGaussianBlur result="h" stdDeviation="1.5"/><feFlood flood-opacity=".161"/><feComposite in2="h" operator="in"/><feComposite in="SourceGraphic"/></filter><filter id="e" filterUnits="userSpaceOnUse" height="17.391" width="30.031" x="158.469" y="43.25"><feOffset dy="1"/><feGaussianBlur result="j" stdDeviation="1.5"/><feFlood flood-opacity=".161"/><feComposite in2="j" operator="in"/><feComposite in="SourceGraphic"/></filter><filter id="f" filterUnits="userSpaceOnUse" height="17.375" width="30.531" x="158.469" y="64.25"><feOffset dy="1"/><feGaussianBlur result="l" stdDeviation="1.5"/><feFlood flood-opacity=".161"/><feComposite in2="l" operator="in"/><feComposite in="SourceGraphic"/></filter><filter id="g" filterUnits="userSpaceOnUse" height="17.141" width="38.031" x="158.156" y="85.5"><feOffset dy="1"/><feGaussianBlur result="n" stdDeviation="1.5"/><feFlood flood-opacity=".161"/><feComposite in2="n" operator="in"/><feComposite in="SourceGraphic"/></filter><filter id="h" filterUnits="userSpaceOnUse" height="19.438" width="41.203" x="158.125" y="106.391"><feOffset dy="1"/><feGaussianBlur result="p" stdDeviation="1.5"/><feFlood flood-opacity=".161"/><feComposite in2="p" operator="in"/><feComposite in="SourceGraphic"/></filter><filter id="i" filterUnits="userSpaceOnUse" height="17.234" width="51.781" x="158.344" y="148.391"><feOffset dy="1"/><feGaussianBlur result="r" stdDeviation="1.5"/><feFlood flood-opacity=".161"/><feComposite in2="r" operator="in"/><feComposite in="SourceGraphic"/></filter><filter id="j" filterUnits="userSpaceOnUse" height="17.375" width="44.016" x="158.156" y="169.25"><feOffset dy="1"/><feGaussianBlur result="t" stdDeviation="1.5"/><feFlood flood-opacity=".161"/><feComposite in2="t" operator="in"/><feComposite in="SourceGraphic"/></filter><filter id="k" filterUnits="userSpaceOnUse" height="17.219" width="30.625" x="158.469" y="127.391"><feOffset dy="1"/><feGaussianBlur result="v" stdDeviation="1.5"/><feFlood flood-opacity=".161"/><feComposite in2="v" operator="in"/><feComposite in="SourceGraphic"/></filter><g transform="translate(-236 -874)"><g fill="#292d34" stroke="#08090f"><path d="m248 886h140v78h-140z" stroke="none"/><path d="m247.5 885.5h141v79h-141z" fill="none"/></g><path d="m248 894h139v20h-139z" fill="#46b8d5"/><g filter="url(#a)" transform="translate(236 874)"><path d="m1.937-8h-.968v8h.969zm2.735 4.391a1.487 1.487 0 0 1 1.528-1.641 1.326 1.326 0 0 1 1.375 1.5v3.75h.925v-3.812c0-1.531-.816-2.266-2.031-2.266a1.771 1.771 0 0 0 -1.75 1.016h-.078v-.938h-.891v6h.922zm9.766-1.047a2.022 2.022 0 0 0 -2.125-1.422c-1.266 0-2.2.719-2.2 1.734 0 .828.492 1.383 1.594 1.641l1 .234c.605.141.891.43.891.844 0 .516-.547.937-1.406.937a1.266 1.266 0 0 1 -1.392-.968l-.875.219a2.062 2.062 0 0 0 2.275 1.562c1.395 0 2.344-.762 2.344-1.8 0-.836-.523-1.363-1.594-1.625l-.891-.219c-.711-.176-1.031-.414-1.031-.875 0-.516.547-.891 1.281-.891a1.262 1.262 0 0 1 1.3.859zm4.109-1.344h-1.281v-1.437h-.922v1.437h-.906v.781h.906v3.75a1.534 1.534 0 0 0 1.625 1.547 1.918 1.918 0 0 0 .688-.109l-.187-.828a1.78 1.78 0 0 1 -.406.047c-.406 0-.8-.125-.8-.906v-3.5h1.281zm1.391 6h.922v-3.8a1.419 1.419 0 0 1 1.515-1.4 2.819 2.819 0 0 1 .563.063v-.937c-.105-.008-.348-.016-.484-.016a1.633 1.633 0 0 0 -1.562 1h-.062v-.91h-.891zm7.875-2.453a1.559 1.559 0 0 1 -1.547 1.641 1.308 1.308 0 0 1 -1.313-1.438v-3.75h-.922v3.812c0 1.531.812 2.266 1.937 2.266a1.871 1.871 0 0 0 1.782-1.094h.063v1.016h.922v-6h-.922zm2.609 2.453h.922v-3.75a1.424 1.424 0 0 1 1.356-1.5 1.108 1.108 0 0 1 1.188 1.141v4.109h.938v-3.906a1.255 1.255 0 0 1 1.33-1.344 1.121 1.121 0 0 1 1.219 1.234v4.016h.925v-4.016c0-1.41-.758-2.062-1.828-2.062a1.9 1.9 0 0 0 -1.8 1.016h-.062a1.65 1.65 0 0 0 -1.61-1.016 1.615 1.615 0 0 0 -1.609 1.016h-.078v-.938h-.891zm12.078.125a2.334 2.334 0 0 0 2.391-1.516l-.891-.25a1.469 1.469 0 0 1 -1.5.941 1.817 1.817 0 0 1 -1.871-1.984h4.355v-.391c0-2.234-1.328-3-2.578-3-1.625 0-2.7 1.281-2.7 3.125a2.756 2.756 0 0 0 2.794 3.075zm-1.871-3.609a1.792 1.792 0 0 1 1.777-1.766 1.627 1.627 0 0 1 1.641 1.766zm6.684-.125a1.487 1.487 0 0 1 1.531-1.641 1.326 1.326 0 0 1 1.375 1.5v3.75h.922v-3.812c0-1.531-.816-2.266-2.031-2.266a1.771 1.771 0 0 0 -1.75 1.016h-.078v-.938h-.891v6h.922zm8.124-2.391h-1.281v-1.437h-.922v1.437h-.906v.781h.906v3.75a1.534 1.534 0 0 0 1.625 1.547 1.918 1.918 0 0 0 .688-.109l-.187-.828a1.78 1.78 0 0 1 -.406.047c-.406 0-.8-.125-.8-.906v-3.5h1.281zm5.531 1.344a2.022 2.022 0 0 0 -2.125-1.422c-1.266 0-2.2.719-2.2 1.734 0 .828.492 1.383 1.594 1.641l1 .234c.605.141.891.43.891.844 0 .516-.547.937-1.406.937a1.266 1.266 0 0 1 -1.391-.969l-.875.219a2.062 2.062 0 0 0 2.278 1.563c1.395 0 2.344-.762 2.344-1.8 0-.836-.523-1.363-1.594-1.625l-.891-.219c-.711-.176-1.031-.414-1.031-.875 0-.516.547-.891 1.281-.891a1.262 1.262 0 0 1 1.3.859z" fill="#fff" transform="translate(22 34)"/></g><g filter="url(#b)" transform="translate(236 874)"><path d="m.969 0h4.89v-.859h-3.922v-2.719h3.61v-.859h-3.61v-2.7h3.863v-.863h-4.831zm9.125-6h-1.344v-.609c0-.594.25-.906.859-.906a1.42 1.42 0 0 1 .516.094l.266-.8a2.144 2.144 0 0 0 -.875-.156 1.554 1.554 0 0 0 -1.688 1.549v.828h-.969v.781h.969v5.219h.922v-5.219h1.344zm3.969 0h-1.344v-.609c0-.594.25-.906.859-.906a1.42 1.42 0 0 1 .516.094l.266-.8a2.144 2.144 0 0 0 -.875-.156 1.554 1.554 0 0 0 -1.685 1.549v.828h-.969v.781h.969v5.219h.922v-5.219h1.344zm3.562 6.125a2.334 2.334 0 0 0 2.391-1.516l-.891-.25a1.469 1.469 0 0 1 -1.5.937 1.817 1.817 0 0 1 -1.871-1.984h4.355v-.391c0-2.234-1.328-3-2.578-3-1.625 0-2.7 1.281-2.7 3.125a2.756 2.756 0 0 0 2.794 3.079zm-1.871-3.609a1.792 1.792 0 0 1 1.777-1.766 1.627 1.627 0 0 1 1.641 1.766zm8.2 3.609a2.226 2.226 0 0 0 2.358-1.875h-.922a1.4 1.4 0 0 1 -1.437 1.05c-1.094 0-1.8-.906-1.8-2.3 0-1.359.719-2.25 1.8-2.25a1.407 1.407 0 0 1 1.438 1.05h.922a2.235 2.235 0 0 0 -2.375-1.875c-1.625 0-2.7 1.281-2.7 3.109-.004 1.794 1.028 3.091 2.715 3.091zm6.312-6.125h-1.282v-1.437h-.922v1.437h-.906v.781h.906v3.75a1.534 1.534 0 0 0 1.625 1.547 1.918 1.918 0 0 0 .688-.109l-.187-.828a1.78 1.78 0 0 1 -.406.047c-.406 0-.8-.125-.8-.906v-3.5h1.281zm5.534 1.344a2.022 2.022 0 0 0 -2.125-1.422c-1.266 0-2.2.719-2.2 1.734 0 .828.492 1.383 1.594 1.641l1 .234c.605.141.891.43.891.844 0 .516-.547.937-1.406.937a1.266 1.266 0 0 1 -1.391-.969l-.875.219a2.062 2.062 0 0 0 2.274 1.563c1.395 0 2.344-.762 2.344-1.8 0-.836-.523-1.363-1.594-1.625l-.891-.219c-.711-.176-1.031-.414-1.031-.875 0-.516.547-.891 1.281-.891a1.262 1.262 0 0 1 1.3.859z" fill="#fff" transform="translate(22 55)"/></g><g filter="url(#c)" transform="translate(236 874)"><path d="m.969-8v8h.906v-6.078h.078l2.5 6.078h.875l2.5-6.078h.078v6.078h.906v-8h-1.156l-2.719 6.641h-.093l-2.719-6.641zm11 0h-.969v8h.969zm4.406 8c2.437 0 3.812-1.516 3.812-4.016 0-2.484-1.375-3.984-3.703-3.984h-2.578v8zm-1.5-.859v-6.282h1.547c1.875 0 2.828 1.187 2.828 3.125 0 1.953-.953 3.156-2.937 3.156zm7.906-7.141h-.969v8h.969zm5.031 8h4.888v-.859h-3.919v-2.719h3.609v-.859h-3.609v-2.7h3.859v-.863h-4.827zm9.125-6h-1.343v-.609c0-.594.25-.906.859-.906a1.42 1.42 0 0 1 .516.094l.266-.8a2.144 2.144 0 0 0 -.875-.156 1.554 1.554 0 0 0 -1.687 1.547v.83h-.973v.781h.969v5.219h.922v-5.219h1.344zm3.969 0h-1.344v-.609c0-.594.25-.906.859-.906a1.42 1.42 0 0 1 .516.094l.266-.8a2.144 2.144 0 0 0 -.875-.156 1.554 1.554 0 0 0 -1.687 1.547v.83h-.969v.781h.969v5.219h.922v-5.219h1.344zm3.563 6.125a2.334 2.334 0 0 0 2.391-1.516l-.891-.25a1.469 1.469 0 0 1 -1.5.937 1.817 1.817 0 0 1 -1.869-1.983h4.355v-.391c0-2.234-1.328-3-2.578-3-1.625 0-2.7 1.281-2.7 3.125a2.756 2.756 0 0 0 2.792 3.078zm-1.869-3.609a1.792 1.792 0 0 1 1.775-1.766 1.627 1.627 0 0 1 1.641 1.766zm8.2 3.609a2.226 2.226 0 0 0 2.356-1.875h-.922a1.4 1.4 0 0 1 -1.434 1.05c-1.1 0-1.8-.909-1.8-2.3 0-1.359.719-2.25 1.8-2.25a1.407 1.407 0 0 1 1.434 1.05h.922a2.235 2.235 0 0 0 -2.375-1.875c-1.625 0-2.7 1.281-2.7 3.109-.003 1.794 1.028 3.091 2.719 3.091zm6.309-6.125h-1.281v-1.437h-.922v1.437h-.906v.781h.906v3.75a1.534 1.534 0 0 0 1.625 1.547 1.918 1.918 0 0 0 .688-.109l-.187-.828a1.78 1.78 0 0 1 -.406.047c-.406 0-.8-.125-.8-.906v-3.5h1.281zm5.531 1.344a2.022 2.022 0 0 0 -2.125-1.422c-1.266 0-2.2.719-2.2 1.734 0 .828.492 1.383 1.594 1.641l1 .234c.605.141.891.43.891.844 0 .516-.547.937-1.406.937a1.266 1.266 0 0 1 -1.394-.968l-.875.219a2.062 2.062 0 0 0 2.281 1.562c1.395 0 2.344-.762 2.344-1.8 0-.836-.523-1.363-1.594-1.625l-.891-.219c-.711-.176-1.031-.414-1.031-.875 0-.516.547-.891 1.281-.891a1.262 1.262 0 0 1 1.3.859z" fill="#fff" transform="translate(22 76)"/></g><path d="m0 0h6v2h-6z" fill="#fff" transform="matrix(.70710678 .70710678 -.70710678 .70710678 372.99971512 899.75741052)"/><path d="m0 0h6v2h-6z" fill="#fff" transform="matrix(-.70710678 .70710678 -.70710678 -.70710678 377.2423558 904.0000512)"/><g fill="#292d34" stroke="#08090f"><path d="m388 886h140v183h-140z" stroke="none"/><path d="m387.5 885.5h141v184h-141z" fill="none"/></g><g filter="url(#d)" transform="translate(236 874)"><path d="m5.344-6h.937c-.043-1.207-1.156-2.109-2.7-2.109-1.531 0-2.734.891-2.734 2.234 0 1.078.781 1.719 2.031 2.078l.984.281c.844.234 1.594.531 1.594 1.328 0 .875-.844 1.453-1.953 1.453-.953 0-1.8-.422-1.875-1.328h-1c.091 1.313 1.153 2.204 2.872 2.204 1.844 0 2.891-1.016 2.891-2.312 0-1.5-1.422-1.984-2.25-2.2l-.812-.219c-.594-.156-1.547-.469-1.547-1.328 0-.766.7-1.328 1.766-1.328.968-.004 1.702.457 1.796 1.246zm5.031 6.125a2.334 2.334 0 0 0 2.391-1.516l-.891-.25a1.469 1.469 0 0 1 -1.5.937 1.817 1.817 0 0 1 -1.875-1.983h4.355v-.391c0-2.234-1.328-3-2.578-3-1.625 0-2.7 1.281-2.7 3.125a2.756 2.756 0 0 0 2.798 3.078zm-1.875-3.609a1.792 1.792 0 0 1 1.781-1.766 1.627 1.627 0 0 1 1.641 1.766zm5.766 3.484h.922v-3.8a1.419 1.419 0 0 1 1.512-1.4 2.819 2.819 0 0 1 .563.063v-.937c-.105-.008-.348-.016-.484-.016a1.633 1.633 0 0 0 -1.562 1h-.062v-.91h-.891zm7.875-2.453a1.559 1.559 0 0 1 -1.547 1.641 1.308 1.308 0 0 1 -1.313-1.438v-3.75h-.922v3.812c0 1.531.812 2.266 1.937 2.266a1.871 1.871 0 0 0 1.781-1.094h.063v1.016h.922v-6h-.922zm2.609 2.453h.922v-3.75a1.424 1.424 0 0 1 1.359-1.5 1.108 1.108 0 0 1 1.188 1.141v4.109h.938v-3.906a1.255 1.255 0 0 1 1.327-1.344 1.121 1.121 0 0 1 1.216 1.234v4.016h.922v-4.016c0-1.41-.758-2.062-1.828-2.062a1.9 1.9 0 0 0 -1.794 1.016h-.062a1.65 1.65 0 0 0 -1.609-1.016 1.615 1.615 0 0 0 -1.609 1.016h-.078v-.938h-.892z" fill="#fff" transform="translate(162 34)"/></g><g filter="url(#e)" transform="translate(236 874)"><path d="m3.437 0c2.438 0 3.813-1.516 3.813-4.016 0-2.484-1.375-3.984-3.703-3.984h-2.578v8zm-1.5-.859v-6.282h1.547c1.875 0 2.828 1.187 2.828 3.125 0 1.953-.953 3.156-2.937 3.156zm6.813.859h.922v-6h-.922zm.469-7a.644.644 0 0 0 .656-.625.644.644 0 0 0 -.656-.625.644.644 0 0 0 -.656.625.644.644 0 0 0 .656.625zm7.047 1h-1l-1.657 4.781h-.062l-1.656-4.781h-1l2.219 6h.937zm2.984 6.141a1.885 1.885 0 0 0 1.781-.953h.047v.812h.922v-3.953a1.971 1.971 0 0 0 -2.219-2.125 2.437 2.437 0 0 0 -2.406 1.406l.875.312a1.621 1.621 0 0 1 1.562-.906 1.114 1.114 0 0 1 1.266 1.219v.031c0 .445-.453.406-1.547.547-1.113.145-2.331.391-2.331 1.769a1.854 1.854 0 0 0 2.05 1.841zm.141-.828c-.734 0-1.266-.328-1.266-.969 0-.7.641-.922 1.359-1.016a4.737 4.737 0 0 0 1.594-.344v.844a1.54 1.54 0 0 1 -1.687 1.485z" fill="#fff" transform="translate(162 55)"/></g><g filter="url(#f)" transform="translate(236 874)"><path d="m.969 0h.969v-3.578h4.262v3.578h.969v-8h-.969v3.562h-4.263v-3.562h-.968zm8.015 0h.922v-6h-.922zm.469-7a.644.644 0 0 0 .656-.625.644.644 0 0 0 -.656-.625.644.644 0 0 0 -.656.625.644.644 0 0 0 .656.625zm7.047 1h-1l-1.656 4.781h-.062l-1.657-4.781h-1l2.219 6h.937zm3.516 6.125a2.334 2.334 0 0 0 2.391-1.516l-.891-.25a1.469 1.469 0 0 1 -1.5.937 1.817 1.817 0 0 1 -1.871-1.984h4.355v-.391c0-2.234-1.328-3-2.578-3-1.625 0-2.7 1.281-2.7 3.125a2.756 2.756 0 0 0 2.794 3.079zm-1.871-3.609a1.792 1.792 0 0 1 1.777-1.766 1.627 1.627 0 0 1 1.641 1.766z" fill="#fff" transform="translate(162 76)"/></g><g filter="url(#g)" transform="translate(236 874)"><path d="m.7 0h5.519v-.859h-4.36l4.313-6.441v-.7h-5.516v.859h4.36l-4.316 6.441zm9.531.125a2.334 2.334 0 0 0 2.391-1.516l-.891-.25a1.469 1.469 0 0 1 -1.5.937 1.817 1.817 0 0 1 -1.868-1.983h4.355v-.391c0-2.234-1.328-3-2.578-3-1.625 0-2.7 1.281-2.7 3.125a2.756 2.756 0 0 0 2.794 3.078zm-1.868-3.609a1.792 1.792 0 0 1 1.778-1.766 1.627 1.627 0 0 1 1.641 1.766zm5.887 3.484h.891v-.922h.109a1.856 1.856 0 0 0 1.75 1.047c1.5 0 2.547-1.2 2.547-3.109 0-1.891-1.047-3.094-2.562-3.094a1.827 1.827 0 0 0 -1.735 1.031h-.078v-2.953h-.922zm.906-3c0-1.344.594-2.25 1.719-2.25 1.172 0 1.75.984 1.75 2.25 0 1.281-.594 2.3-1.75 2.3-1.109 0-1.719-.941-1.719-2.3zm5.8 3h.922v-3.8a1.421 1.421 0 0 1 1.513-1.4 1.147 1.147 0 0 1 .531.109l.313-.781a1.283 1.283 0 0 0 -.766-.219 1.621 1.621 0 0 0 -1.562 1h-.062v-.909h-.891zm5.984.141a1.885 1.885 0 0 0 1.781-.953h.047v.812h.922v-3.953a1.971 1.971 0 0 0 -2.219-2.125 2.437 2.437 0 0 0 -2.406 1.406l.875.312a1.621 1.621 0 0 1 1.56-.906 1.114 1.114 0 0 1 1.266 1.219v.031c0 .445-.453.406-1.547.547-1.113.145-2.328.391-2.328 1.766a1.854 1.854 0 0 0 2.046 1.844zm.141-.828c-.734 0-1.266-.328-1.266-.969 0-.7.641-.922 1.359-1.016a4.737 4.737 0 0 0 1.594-.344v.844a1.54 1.54 0 0 1 -1.69 1.485z" fill="#fff" transform="translate(162 97)"/></g><g filter="url(#h)" transform="translate(236 874)"><path d="m5.344-6h.937c-.043-1.207-1.156-2.109-2.7-2.109-1.531 0-2.734.891-2.734 2.234 0 1.078.781 1.719 2.031 2.078l.984.281c.844.234 1.594.531 1.594 1.328 0 .875-.844 1.453-1.953 1.453-.953 0-1.8-.422-1.875-1.328h-1c.091 1.313 1.153 2.204 2.872 2.204 1.844 0 2.891-1.016 2.891-2.312 0-1.5-1.422-1.984-2.25-2.2l-.812-.219c-.594-.156-1.547-.469-1.547-1.328 0-.766.7-1.328 1.766-1.328.968-.004 1.702.457 1.796 1.246zm3.078 8.328a1.789 1.789 0 0 0 1.765-1.359l2.579-6.969h-1l-1.657 4.781h-.062l-1.656-4.781h-1l2.218 6.031-.2.562c-.324.9-.75.984-1.422.812l-.234.812a1.814 1.814 0 0 0 .669.111zm8.172-8.328h-1.282v-1.437h-.922v1.437h-.906v.781h.906v3.75a1.534 1.534 0 0 0 1.626 1.547 1.918 1.918 0 0 0 .684-.109l-.187-.828a1.78 1.78 0 0 1 -.406.047c-.406 0-.8-.125-.8-.906v-3.5h1.281zm1.391 6h.922v-3.8a1.419 1.419 0 0 1 1.515-1.4 2.819 2.819 0 0 1 .563.063v-.937c-.105-.008-.348-.016-.484-.016a1.633 1.633 0 0 0 -1.562 1h-.062v-.91h-.891zm7.875-2.453a1.559 1.559 0 0 1 -1.548 1.641 1.308 1.308 0 0 1 -1.312-1.438v-3.75h-.922v3.812c0 1.531.812 2.266 1.937 2.266a1.871 1.871 0 0 0 1.785-1.094h.063v1.016h.922v-6h-.922zm6.859-2.2a2.022 2.022 0 0 0 -2.125-1.422c-1.266 0-2.2.719-2.2 1.734 0 .828.492 1.383 1.594 1.641l1 .234c.605.141.891.43.891.844 0 .516-.547.937-1.406.937a1.266 1.266 0 0 1 -1.391-.969l-.875.219a2.062 2.062 0 0 0 2.277 1.56c1.395 0 2.344-.762 2.344-1.8 0-.836-.523-1.363-1.594-1.625l-.891-.219c-.711-.176-1.031-.414-1.031-.875 0-.516.547-.891 1.281-.891a1.262 1.262 0 0 1 1.3.859z" fill="#fff" transform="translate(162 118)"/></g><g filter="url(#i)" transform="translate(236 874)"><path d="m.844 0h.922v-2.246l.645-.6 2.245 2.846h1.172l-2.723-3.437 2.536-2.563h-1.141l-2.625 2.672h-.109v-4.672h-.922zm6.109 0h.969v-3.578h4.266v3.578h.969v-8h-.969v3.562h-4.266v-3.562h-.969zm12.266-4.656a2.022 2.022 0 0 0 -2.125-1.422c-1.266 0-2.2.719-2.2 1.734 0 .828.492 1.383 1.594 1.641l1 .234c.605.141.891.43.891.844 0 .516-.547.937-1.406.937a1.266 1.266 0 0 1 -1.391-.969l-.875.219a2.062 2.062 0 0 0 2.277 1.563c1.395 0 2.344-.762 2.344-1.8 0-.836-.523-1.363-1.594-1.625l-.891-.219c-.711-.176-1.031-.414-1.031-.875 0-.516.547-.891 1.281-.891a1.262 1.262 0 0 1 1.3.859zm11.468.656c0-2.531-1.484-4.109-3.531-4.109s-3.531 1.578-3.531 4.109 1.484 4.109 3.531 4.109 3.531-1.578 3.531-4.109zm-.937 0c0 2.078-1.141 3.2-2.594 3.2s-2.594-1.122-2.594-3.2 1.138-3.2 2.594-3.2 2.594 1.122 2.594 3.2zm3.359.391a1.487 1.487 0 0 1 1.532-1.641 1.326 1.326 0 0 1 1.375 1.5v3.75h.922v-3.812c0-1.531-.816-2.266-2.031-2.266a1.771 1.771 0 0 0 -1.75 1.016h-.078v-.938h-.891v6h.922zm8.032 3.734a2.334 2.334 0 0 0 2.391-1.516l-.891-.25a1.469 1.469 0 0 1 -1.5.937 1.817 1.817 0 0 1 -1.871-1.983h4.355v-.391c0-2.234-1.328-3-2.578-3-1.625 0-2.7 1.281-2.7 3.125a2.756 2.756 0 0 0 2.794 3.078zm-1.871-3.609a1.792 1.792 0 0 1 1.777-1.766 1.627 1.627 0 0 1 1.641 1.766z" fill="#fff" transform="translate(162 160)"/></g><g filter="url(#j)" transform="translate(236 874)"><path d="m7.406-5.5a3.118 3.118 0 0 0 -3.219-2.609c-2.046 0-3.531 1.578-3.531 4.109s1.485 4.109 3.531 4.109a3.118 3.118 0 0 0 3.219-2.609h-.969a2.177 2.177 0 0 1 -2.25 1.7c-1.453 0-2.593-1.122-2.593-3.2s1.14-3.2 2.593-3.2a2.177 2.177 0 0 1 2.25 1.7zm1.438 5.5h.922v-6h-.922zm.469-7a.644.644 0 0 0 .656-.625.644.644 0 0 0 -.656-.625.644.644 0 0 0 -.656.625.644.644 0 0 0 .655.625zm2.141 7h.922v-3.8a1.421 1.421 0 0 1 1.515-1.4 1.147 1.147 0 0 1 .531.109l.313-.781a1.283 1.283 0 0 0 -.766-.219 1.621 1.621 0 0 0 -1.562 1h-.062v-.909h-.891zm6.469.125a2.226 2.226 0 0 0 2.358-1.875h-.922a1.4 1.4 0 0 1 -1.437 1.05c-1.094 0-1.8-.906-1.8-2.3 0-1.359.719-2.25 1.8-2.25a1.407 1.407 0 0 1 1.437 1.05h.922a2.235 2.235 0 0 0 -2.375-1.875c-1.625 0-2.7 1.281-2.7 3.109-.006 1.794 1.028 3.091 2.716 3.091zm4.624-8.125h-.922v8h.922zm4.203 8.125a2.334 2.334 0 0 0 2.391-1.516l-.891-.25a1.469 1.469 0 0 1 -1.5.937 1.817 1.817 0 0 1 -1.871-1.984h4.355v-.391c0-2.234-1.328-3-2.578-3-1.625 0-2.7 1.281-2.7 3.125a2.756 2.756 0 0 0 2.794 3.079zm-1.871-3.609a1.792 1.792 0 0 1 1.777-1.766 1.627 1.627 0 0 1 1.644 1.766zm5.746 3.484h5.047v-.859h-3.719v-.063l1.8-1.922c1.372-1.472 1.778-2.156 1.778-3.047a2.265 2.265 0 0 0 -2.406-2.219 2.33 2.33 0 0 0 -2.469 2.36h.922a1.423 1.423 0 0 1 1.516-1.516 1.4 1.4 0 0 1 1.531 1.375c0 .738-.434 1.285-1.359 2.3l-2.641 2.891z" fill="#fff" transform="translate(162 181)"/></g><path d="m0 0h6v2h-6z" fill="#fff" transform="matrix(.70710678 .70710678 -.70710678 .70710678 372.99971512 920.75741052)"/><path d="m0 0h6v2h-6z" fill="#fff" transform="matrix(-.70710678 .70710678 -.70710678 -.70710678 377.2423558 925.0000512)"/><g fill="none" stroke="#46b8d5" stroke-width="2"><circle cx="248" cy="886" r="7" stroke="none"/><circle cx="248" cy="886" fill="none" r="6"/></g><g fill="none" opacity=".5" stroke="#46b8d5" stroke-width="2"><circle cx="248" cy="886" r="12" stroke="none"/><circle cx="248" cy="886" fill="none" r="11"/></g><g transform="translate(1803 836)"><path d="m-1548.20031738 71.46768188-.20336914-.45681762-2.12561036-4.77455902-3.11755371 3.11754608-.85351562.8535614v-1.20710754-17.00009919-1.28531265l.86853027.94742966 11.00073242 11.99970245.76818848.83787537h-1.13671875-1.00085449-2.92333985l2.17419434 4.8838501.20336914.4567337-.45678711.20337677-2.74047851 1.22040558z"/><path d="m-1547.94689941 70.80750275 2.74047851-1.22039795-2.48730469-5.58720017h3.69323731 1.00085449l-11.00073242-11.99969864v17.00009919l3.63195801-3.63198853zm-.50683594 1.32037353-.40673828-.91365814-1.82971192-4.10991669-2.60302734 2.60310364-1.70715332 1.70713043v-2.41423034-17.00009919-2.57063293l1.73706055 1.89487076 11.00085449 11.99970245 1.53625488 1.67575455h-2.2734375-1.00085449-2.15344238l1.86108398 4.18050384.40661621.91345215-.91333008.40676117-2.74047851 1.22039795z" fill="#fff"/></g><path d="m388 999h140v20h-140z" fill="#46b8d5"/><g filter="url(#k)" transform="translate(236 874)"><path d="m.969 0h.969v-3.578h3.468v-.859h-3.469v-2.7h3.829v-.863h-4.797zm6.453-8v8h.906v-6.078h.078l2.5 6.078h.875l2.5-6.078h.078v6.078h.906v-8h-1.156l-2.718 6.641h-.091l-2.722-6.641zm12.453 8.109c1.6 0 2.711-.934 2.719-2.234a2.037 2.037 0 0 0 -1.547-2.031v-.044a1.786 1.786 0 0 0 1.253-1.784 2.232 2.232 0 0 0 -2.422-2.125 2.214 2.214 0 0 0 -2.422 2.125 1.751 1.751 0 0 0 1.244 1.784v.047a2.006 2.006 0 0 0 -1.547 2.031c-.005 1.298 1.109 2.231 2.722 2.231zm0-.859c-1.1 0-1.773-.562-1.766-1.422a1.6 1.6 0 0 1 1.766-1.547 1.619 1.619 0 0 1 1.766 1.547c-.008.86-.684 1.422-1.766 1.422zm0-3.8a1.356 1.356 0 0 1 -1.484-1.375 1.329 1.329 0 0 1 1.484-1.344 1.345 1.345 0 0 1 1.484 1.344 1.372 1.372 0 0 1 -1.484 1.378z" fill="#fff" transform="translate(162 139)"/></g><g fill="#fff"><path d="m0 0h6v2h-6z" transform="matrix(.70710678 .70710678 -.70710678 .70710678 372.99971512 941.75741052)"/><path d="m0 0h6v2h-6z" transform="matrix(-.70710678 .70710678 -.70710678 -.70710678 377.2423558 946.0000512)"/></g></g></svg>