<svg height="148" viewBox="0 0 144.297 148" width="144.297" xmlns="http://www.w3.org/2000/svg" xmlns:xlink="http://www.w3.org/1999/xlink"><filter id="a" filterUnits="userSpaceOnUse" height="19.484" width="87" x="39.063" y="10.391"><feOffset dy="1"/><feGaussianBlur result="b" stdDeviation="1.5"/><feFlood flood-opacity=".161"/><feComposite in2="b" operator="in"/><feComposite in="SourceGraphic"/></filter><filter id="b" filterUnits="userSpaceOnUse" height="19.484" width="87.031" x="49.063" y="67.391"><feOffset dy="1"/><feGaussianBlur result="d" stdDeviation="1.5"/><feFlood flood-opacity=".161"/><feComposite in2="d" operator="in"/><feComposite in="SourceGraphic"/></filter><filter id="c" filterUnits="userSpaceOnUse" height="19.484" width="85.234" x="59.063" y="123.391"><feOffset dy="1"/><feGaussianBlur result="f" stdDeviation="1.5"/><feFlood flood-opacity=".161"/><feComposite in2="f" operator="in"/><feComposite in="SourceGraphic"/></filter><g transform="translate(-1063 -1404)"><g fill="none" transform="translate(1063 1404)"><path d="m0 0h18l10 10v26h-28z"/><path d="m2 2v32h24v-23.17157936l-8.82841873-8.82842064zm-2-2h18l10 10v26h-28z" fill="#46b8d5"/></g><path d="m1079 1404h2v11h-2z" fill="#46b8d5"/><path d="m1079 1414h12v2h-12z" fill="#46b8d5"/><g opacity=".2"><g fill="none" transform="translate(1083 1516)"><path d="m0 0h18l10 10v26h-28z"/><path d="m2 2v32h24v-23.17157936l-8.82841873-8.82842064zm-2-2h18l10 10v26h-28z" fill="#46b8d5"/></g><g fill="#46b8d5"><path d="m1099 1516h2v11h-2z"/><path d="m1099 1526h12v2h-12z"/></g></g><g opacity=".5"><g fill="none" transform="translate(1073 1460)"><path d="m0 0h18l10 10v26h-28z"/><path d="m2 2v32h24v-23.17157936l-8.82841873-8.82842064zm-2-2h18l10 10v26h-28z" fill="#46b8d5"/></g><g fill="#46b8d5"><path d="m1089 1460h2v11h-2z"/><path d="m1089 1470h12v2h-12z"/></g></g><g transform="translate(1063 1404)"><g filter="url(#a)"><path d="m3.266 2.375c1.437 0 2.594-.656 2.594-2.2v-6.175h-.891v.953h-.094a1.855 1.855 0 0 0 -1.75-1.031c-1.516 0-2.562 1.2-2.562 3.047 0 1.875 1.094 2.937 2.547 2.937a1.824 1.824 0 0 0 1.75-1.016h.078v1.219c0 1-.7 1.453-1.672 1.453a1.878 1.878 0 0 1 -1.719-.906l-.734.516a2.644 2.644 0 0 0 2.453 1.203zm-.031-3.3c-1.156 0-1.75-.875-1.75-2.125 0-1.219.578-2.2 1.75-2.2 1.125 0 1.719.906 1.719 2.2-.001 1.331-.61 2.128-1.72 2.128zm6.077 1.066a1.885 1.885 0 0 0 1.781-.953h.047v.812h.922v-3.953a1.971 1.971 0 0 0 -2.218-2.125 2.437 2.437 0 0 0 -2.407 1.406l.875.312a1.621 1.621 0 0 1 1.562-.906 1.114 1.114 0 0 1 1.266 1.219v.031c0 .445-.453.406-1.547.547-1.113.145-2.327.391-2.327 1.769a1.854 1.854 0 0 0 2.046 1.841zm.141-.828c-.734 0-1.266-.328-1.266-.969 0-.7.641-.922 1.359-1.016a4.737 4.737 0 0 0 1.594-.344v.844a1.54 1.54 0 0 1 -1.687 1.485zm4.297.687h.922v-3.8a1.421 1.421 0 0 1 1.515-1.4 1.147 1.147 0 0 1 .531.109l.313-.781a1.283 1.283 0 0 0 -.766-.219 1.621 1.621 0 0 0 -1.562 1h-.062v-.909h-.891zm4.344 0h.891v-.922h.109a1.856 1.856 0 0 0 1.75 1.047c1.5 0 2.547-1.2 2.547-3.109 0-1.891-1.047-3.094-2.562-3.094a1.827 1.827 0 0 0 -1.734 1.031h-.078v-2.953h-.922zm.906-3c0-1.344.594-2.25 1.719-2.25 1.172 0 1.75.984 1.75 2.25 0 1.281-.594 2.3-1.75 2.3-1.11 0-1.719-.941-1.719-2.3zm7.562 3.141a1.885 1.885 0 0 0 1.781-.953h.047v.812h.922v-3.953a1.971 1.971 0 0 0 -2.219-2.125 2.437 2.437 0 0 0 -2.406 1.406l.875.312a1.621 1.621 0 0 1 1.562-.906 1.114 1.114 0 0 1 1.266 1.219v.031c0 .445-.453.406-1.547.547-1.113.145-2.328.391-2.328 1.766a1.854 1.854 0 0 0 2.047 1.844zm.138-.828c-.734 0-1.266-.328-1.266-.969 0-.7.641-.922 1.359-1.016a4.737 4.737 0 0 0 1.594-.344v.844a1.54 1.54 0 0 1 -1.687 1.485zm6.719 3.062c1.438 0 2.594-.656 2.594-2.2v-6.175h-.891v.953h-.094a1.855 1.855 0 0 0 -1.75-1.031c-1.516 0-2.562 1.2-2.562 3.047 0 1.875 1.094 2.937 2.547 2.937a1.824 1.824 0 0 0 1.75-1.016h.078v1.219c0 1-.7 1.453-1.672 1.453a1.878 1.878 0 0 1 -1.719-.906l-.734.516a2.644 2.644 0 0 0 2.456 1.203zm-.031-3.3c-1.156 0-1.75-.875-1.75-2.125 0-1.219.578-2.2 1.75-2.2 1.125 0 1.719.906 1.719 2.2.002 1.331-.607 2.128-1.716 2.128zm6.831 1.05a2.334 2.334 0 0 0 2.391-1.516l-.891-.25a1.469 1.469 0 0 1 -1.5.937 1.817 1.817 0 0 1 -1.871-1.984h4.352v-.391c0-2.234-1.328-3-2.578-3-1.625 0-2.7 1.281-2.7 3.125a2.756 2.756 0 0 0 2.797 3.079zm-1.871-3.609a1.792 1.792 0 0 1 1.777-1.766 1.627 1.627 0 0 1 1.641 1.766zm9.902 3.484h-5v.859h5zm.813 0h5.047v-.859h-3.719v-.063l1.8-1.922c1.371-1.472 1.778-2.156 1.778-3.047a2.265 2.265 0 0 0 -2.406-2.219 2.33 2.33 0 0 0 -2.469 2.36h.922a1.423 1.423 0 0 1 1.516-1.516 1.4 1.4 0 0 1 1.531 1.375c0 .738-.434 1.285-1.359 2.3l-2.641 2.891zm9.359.109a2.452 2.452 0 0 0 2.7-2.281 1.837 1.837 0 0 0 -1.609-1.922v-.062a1.8 1.8 0 0 0 1.312-1.812 2.195 2.195 0 0 0 -2.375-2.141 2.37 2.37 0 0 0 -2.575 2.109h.938a1.472 1.472 0 0 1 1.625-1.266 1.317 1.317 0 0 1 1.453 1.344 1.431 1.431 0 0 1 -1.609 1.391h-.641v.859h.641c1.215 0 1.891.617 1.891 1.5 0 .848-.738 1.422-1.766 1.422-.926 0-1.66-.477-1.719-1.25h-.988c.062 1.258 1.171 2.109 2.722 2.109zm4.609-.047a.705.705 0 0 0 .7-.7.705.705 0 0 0 -.7-.7.705.705 0 0 0 -.7.7.705.705 0 0 0 .7.7zm4.125.078a1.885 1.885 0 0 0 1.781-.953h.047v.813h.922v-3.953a1.971 1.971 0 0 0 -2.219-2.125 2.437 2.437 0 0 0 -2.406 1.406l.875.312a1.621 1.621 0 0 1 1.563-.906 1.114 1.114 0 0 1 1.266 1.219v.031c0 .445-.453.406-1.547.547-1.113.145-2.328.391-2.328 1.766a1.854 1.854 0 0 0 2.046 1.844zm.144-.827c-.734 0-1.266-.328-1.266-.969 0-.7.641-.922 1.359-1.016a4.737 4.737 0 0 0 1.594-.344v.844a1.54 1.54 0 0 1 -1.687 1.485zm5.216-7.313h-.922v8h.922zm5.937 3.344a2.022 2.022 0 0 0 -2.125-1.422c-1.266 0-2.2.719-2.2 1.734 0 .828.492 1.383 1.594 1.641l1 .234c.605.141.891.43.891.844 0 .516-.547.937-1.406.937a1.266 1.266 0 0 1 -1.391-.969l-.875.219a2.062 2.062 0 0 0 2.278 1.563c1.395 0 2.344-.762 2.344-1.8 0-.836-.523-1.363-1.594-1.625l-.891-.219c-.711-.176-1.031-.414-1.031-.875 0-.516.547-.891 1.281-.891a1.262 1.262 0 0 1 1.3.859z" fill="#fff" transform="translate(43 22)"/></g><g filter="url(#b)"><path d="m3.266 2.375c1.437 0 2.594-.656 2.594-2.2v-6.175h-.891v.953h-.094a1.855 1.855 0 0 0 -1.75-1.031c-1.516 0-2.562 1.2-2.562 3.047 0 1.875 1.094 2.937 2.547 2.937a1.824 1.824 0 0 0 1.75-1.016h.078v1.219c0 1-.7 1.453-1.672 1.453a1.878 1.878 0 0 1 -1.719-.906l-.734.516a2.644 2.644 0 0 0 2.453 1.203zm-.031-3.3c-1.156 0-1.75-.875-1.75-2.125 0-1.219.578-2.2 1.75-2.2 1.125 0 1.719.906 1.719 2.2-.001 1.331-.61 2.128-1.72 2.128zm6.077 1.066a1.885 1.885 0 0 0 1.781-.953h.047v.812h.922v-3.953a1.971 1.971 0 0 0 -2.218-2.125 2.437 2.437 0 0 0 -2.407 1.406l.875.312a1.621 1.621 0 0 1 1.562-.906 1.114 1.114 0 0 1 1.266 1.219v.031c0 .445-.453.406-1.547.547-1.113.145-2.327.391-2.327 1.769a1.854 1.854 0 0 0 2.046 1.841zm.141-.828c-.734 0-1.266-.328-1.266-.969 0-.7.641-.922 1.359-1.016a4.737 4.737 0 0 0 1.594-.344v.844a1.54 1.54 0 0 1 -1.687 1.485zm4.297.687h.922v-3.8a1.421 1.421 0 0 1 1.515-1.4 1.147 1.147 0 0 1 .531.109l.313-.781a1.283 1.283 0 0 0 -.766-.219 1.621 1.621 0 0 0 -1.562 1h-.062v-.909h-.891zm4.344 0h.891v-.922h.109a1.856 1.856 0 0 0 1.75 1.047c1.5 0 2.547-1.2 2.547-3.109 0-1.891-1.047-3.094-2.562-3.094a1.827 1.827 0 0 0 -1.734 1.031h-.078v-2.953h-.922zm.906-3c0-1.344.594-2.25 1.719-2.25 1.172 0 1.75.984 1.75 2.25 0 1.281-.594 2.3-1.75 2.3-1.11 0-1.719-.941-1.719-2.3zm7.562 3.141a1.885 1.885 0 0 0 1.781-.953h.047v.812h.922v-3.953a1.971 1.971 0 0 0 -2.219-2.125 2.437 2.437 0 0 0 -2.406 1.406l.875.312a1.621 1.621 0 0 1 1.562-.906 1.114 1.114 0 0 1 1.266 1.219v.031c0 .445-.453.406-1.547.547-1.113.145-2.328.391-2.328 1.766a1.854 1.854 0 0 0 2.047 1.844zm.138-.828c-.734 0-1.266-.328-1.266-.969 0-.7.641-.922 1.359-1.016a4.737 4.737 0 0 0 1.594-.344v.844a1.54 1.54 0 0 1 -1.687 1.485zm6.719 3.062c1.438 0 2.594-.656 2.594-2.2v-6.175h-.891v.953h-.094a1.855 1.855 0 0 0 -1.75-1.031c-1.516 0-2.562 1.2-2.562 3.047 0 1.875 1.094 2.937 2.547 2.937a1.824 1.824 0 0 0 1.75-1.016h.078v1.219c0 1-.7 1.453-1.672 1.453a1.878 1.878 0 0 1 -1.719-.906l-.734.516a2.644 2.644 0 0 0 2.456 1.203zm-.031-3.3c-1.156 0-1.75-.875-1.75-2.125 0-1.219.578-2.2 1.75-2.2 1.125 0 1.719.906 1.719 2.2.002 1.331-.607 2.128-1.716 2.128zm6.831 1.05a2.334 2.334 0 0 0 2.391-1.516l-.891-.25a1.469 1.469 0 0 1 -1.5.937 1.817 1.817 0 0 1 -1.871-1.984h4.352v-.391c0-2.234-1.328-3-2.578-3-1.625 0-2.7 1.281-2.7 3.125a2.756 2.756 0 0 0 2.797 3.079zm-1.871-3.609a1.792 1.792 0 0 1 1.777-1.766 1.627 1.627 0 0 1 1.641 1.766zm9.902 3.484h-5v.859h5zm.813 0h5.047v-.859h-3.719v-.063l1.8-1.922c1.371-1.472 1.778-2.156 1.778-3.047a2.265 2.265 0 0 0 -2.406-2.219 2.33 2.33 0 0 0 -2.469 2.36h.922a1.423 1.423 0 0 1 1.516-1.516 1.4 1.4 0 0 1 1.531 1.375c0 .738-.434 1.285-1.359 2.3l-2.641 2.891zm6.656 0h5.047v-.859h-3.719v-.063l1.8-1.922c1.372-1.472 1.778-2.156 1.778-3.047a2.265 2.265 0 0 0 -2.406-2.219 2.33 2.33 0 0 0 -2.469 2.36h.922a1.423 1.423 0 0 1 1.516-1.516 1.4 1.4 0 0 1 1.531 1.375c0 .738-.434 1.285-1.359 2.3l-2.641 2.891zm7.344.062a.705.705 0 0 0 .7-.7.705.705 0 0 0 -.7-.7.705.705 0 0 0 -.7.7.705.705 0 0 0 .7.7zm4.125.078a1.885 1.885 0 0 0 1.781-.953h.047v.813h.922v-3.953a1.971 1.971 0 0 0 -2.219-2.125 2.437 2.437 0 0 0 -2.406 1.406l.875.312a1.621 1.621 0 0 1 1.563-.906 1.114 1.114 0 0 1 1.266 1.219v.031c0 .445-.453.406-1.547.547-1.113.145-2.328.391-2.328 1.766a1.854 1.854 0 0 0 2.046 1.844zm.141-.828c-.734 0-1.266-.328-1.266-.969 0-.7.641-.922 1.359-1.016a4.737 4.737 0 0 0 1.594-.344v.844a1.54 1.54 0 0 1 -1.688 1.486zm5.218-7.312h-.922v8h.922zm5.937 3.344a2.022 2.022 0 0 0 -2.125-1.422c-1.266 0-2.2.719-2.2 1.734 0 .828.492 1.383 1.594 1.641l1 .234c.605.141.891.43.891.844 0 .516-.547.937-1.406.937a1.266 1.266 0 0 1 -1.391-.969l-.875.219a2.062 2.062 0 0 0 2.278 1.563c1.395 0 2.344-.762 2.344-1.8 0-.836-.523-1.363-1.594-1.625l-.891-.219c-.711-.176-1.031-.414-1.031-.875 0-.516.547-.891 1.281-.891a1.262 1.262 0 0 1 1.3.859z" fill="#fff" opacity=".5" transform="translate(53 79)"/></g><g filter="url(#c)"><path d="m3.266 2.375c1.437 0 2.594-.656 2.594-2.2v-6.175h-.891v.953h-.094a1.855 1.855 0 0 0 -1.75-1.031c-1.516 0-2.562 1.2-2.562 3.047 0 1.875 1.094 2.937 2.547 2.937a1.824 1.824 0 0 0 1.75-1.016h.078v1.219c0 1-.7 1.453-1.672 1.453a1.878 1.878 0 0 1 -1.719-.906l-.734.516a2.644 2.644 0 0 0 2.453 1.203zm-.031-3.3c-1.156 0-1.75-.875-1.75-2.125 0-1.219.578-2.2 1.75-2.2 1.125 0 1.719.906 1.719 2.2-.001 1.331-.61 2.128-1.72 2.128zm6.077 1.066a1.885 1.885 0 0 0 1.781-.953h.047v.812h.922v-3.953a1.971 1.971 0 0 0 -2.218-2.125 2.437 2.437 0 0 0 -2.407 1.406l.875.312a1.621 1.621 0 0 1 1.562-.906 1.114 1.114 0 0 1 1.266 1.219v.031c0 .445-.453.406-1.547.547-1.113.145-2.327.391-2.327 1.769a1.854 1.854 0 0 0 2.046 1.841zm.141-.828c-.734 0-1.266-.328-1.266-.969 0-.7.641-.922 1.359-1.016a4.737 4.737 0 0 0 1.594-.344v.844a1.54 1.54 0 0 1 -1.687 1.485zm4.297.687h.922v-3.8a1.421 1.421 0 0 1 1.515-1.4 1.147 1.147 0 0 1 .531.109l.313-.781a1.283 1.283 0 0 0 -.766-.219 1.621 1.621 0 0 0 -1.562 1h-.062v-.909h-.891zm4.344 0h.891v-.922h.109a1.856 1.856 0 0 0 1.75 1.047c1.5 0 2.547-1.2 2.547-3.109 0-1.891-1.047-3.094-2.562-3.094a1.827 1.827 0 0 0 -1.734 1.031h-.078v-2.953h-.922zm.906-3c0-1.344.594-2.25 1.719-2.25 1.172 0 1.75.984 1.75 2.25 0 1.281-.594 2.3-1.75 2.3-1.11 0-1.719-.941-1.719-2.3zm7.562 3.141a1.885 1.885 0 0 0 1.781-.953h.047v.812h.922v-3.953a1.971 1.971 0 0 0 -2.219-2.125 2.437 2.437 0 0 0 -2.406 1.406l.875.312a1.621 1.621 0 0 1 1.562-.906 1.114 1.114 0 0 1 1.266 1.219v.031c0 .445-.453.406-1.547.547-1.113.145-2.328.391-2.328 1.766a1.854 1.854 0 0 0 2.047 1.844zm.138-.828c-.734 0-1.266-.328-1.266-.969 0-.7.641-.922 1.359-1.016a4.737 4.737 0 0 0 1.594-.344v.844a1.54 1.54 0 0 1 -1.687 1.485zm6.719 3.062c1.438 0 2.594-.656 2.594-2.2v-6.175h-.891v.953h-.094a1.855 1.855 0 0 0 -1.75-1.031c-1.516 0-2.562 1.2-2.562 3.047 0 1.875 1.094 2.937 2.547 2.937a1.824 1.824 0 0 0 1.75-1.016h.078v1.219c0 1-.7 1.453-1.672 1.453a1.878 1.878 0 0 1 -1.719-.906l-.734.516a2.644 2.644 0 0 0 2.456 1.203zm-.031-3.3c-1.156 0-1.75-.875-1.75-2.125 0-1.219.578-2.2 1.75-2.2 1.125 0 1.719.906 1.719 2.2.002 1.331-.607 2.128-1.716 2.128zm6.831 1.05a2.334 2.334 0 0 0 2.391-1.516l-.891-.25a1.469 1.469 0 0 1 -1.5.937 1.817 1.817 0 0 1 -1.871-1.984h4.352v-.391c0-2.234-1.328-3-2.578-3-1.625 0-2.7 1.281-2.7 3.125a2.756 2.756 0 0 0 2.797 3.079zm-1.871-3.609a1.792 1.792 0 0 1 1.777-1.766 1.627 1.627 0 0 1 1.641 1.766zm9.902 3.484h-5v.859h5zm.813 0h5.047v-.859h-3.719v-.063l1.8-1.922c1.371-1.472 1.778-2.156 1.778-3.047a2.265 2.265 0 0 0 -2.406-2.219 2.33 2.33 0 0 0 -2.469 2.36h.922a1.423 1.423 0 0 1 1.516-1.516 1.4 1.4 0 0 1 1.531 1.375c0 .738-.434 1.285-1.359 2.3l-2.641 2.891zm9.219-8h-.859a2.218 2.218 0 0 1 -1.859 1.187v.813a2.171 2.171 0 0 0 1.687-.594h.063v6.594h.969zm2.984 8.062a.705.705 0 0 0 .7-.7.705.705 0 0 0 -.7-.7.705.705 0 0 0 -.7.7.705.705 0 0 0 .7.7zm4.125.078a1.885 1.885 0 0 0 1.781-.953h.047v.813h.922v-3.953a1.971 1.971 0 0 0 -2.219-2.125 2.437 2.437 0 0 0 -2.406 1.406l.875.312a1.621 1.621 0 0 1 1.563-.906 1.114 1.114 0 0 1 1.266 1.219v.031c0 .445-.453.406-1.547.547-1.113.145-2.328.391-2.328 1.766a1.854 1.854 0 0 0 2.046 1.844zm.141-.828c-.734 0-1.266-.328-1.266-.969 0-.7.641-.922 1.359-1.016a4.737 4.737 0 0 0 1.594-.344v.844a1.54 1.54 0 0 1 -1.688 1.486zm5.218-7.312h-.922v8h.922zm5.937 3.344a2.022 2.022 0 0 0 -2.125-1.422c-1.266 0-2.2.719-2.2 1.734 0 .828.492 1.383 1.594 1.641l1 .234c.605.141.891.43.891.844 0 .516-.547.937-1.406.937a1.266 1.266 0 0 1 -1.391-.969l-.875.219a2.062 2.062 0 0 0 2.278 1.563c1.395 0 2.344-.762 2.344-1.8 0-.836-.523-1.363-1.594-1.625l-.891-.219c-.711-.176-1.031-.414-1.031-.875 0-.516.547-.891 1.281-.891a1.262 1.262 0 0 1 1.3.859z" fill="#fff" opacity=".2" transform="translate(63 135)"/></g></g></g></svg>