<svg height="132" viewBox="0 0 308 132" width="308" xmlns="http://www.w3.org/2000/svg" xmlns:xlink="http://www.w3.org/1999/xlink"><defs><path id="a" d="m9.42612737 6.00000668h-1.23295337c-.29829517-1.41193048-1.51136219-2.16761157-2.86363363-2.16761157-1.84943005 0-3.30113321 1.43181681-3.30113321 4.07670065s1.45170316 4.07670064 3.30113321 4.07670064c1.35227144 0 2.56533846-.7556811 2.86363363-2.16761155h1.23295337c-.37784054 2.08806615-2.0482935 3.32101955-4.096587 3.32101955-2.60511115 0-4.49431389-2.0085208-4.49431389-5.23010864 0-3.22158783 1.88920274-5.23010864 4.49431389-5.23010864 2.0482935 0 3.71874646 1.23295337 4.096587 3.32101956zm5.15057303-.63636303v.99431723h-1.6306803v4.45454122c0 .9943172.4971586 1.153408 1.0142036 1.153408.2585225 0 .4176132-.0397727.5170449-.0596591l.2386362 1.0539763c-.1590908.059659-.4374996.1392044-.8749992.1392044-.9943172 0-2.0681798-.636363-2.0681798-1.9687481v-4.77272272h-1.153408v-.99431723h1.153408v-1.82954371h1.1732943v1.82954371zm1.8494349 7.63635635v-7.63635635h1.1335217v1.15340799h.0795454c.2734372-.7556811 1.0639194-1.27272606 1.9886344-1.27272606.4225849 0 .7357948.10937489.9744309.27840882l-.3977269.99431724c-.1640623-.08451697-.3828121-.13920442-.6761357-.13920442-1.1136353 0-1.9289754.76065269-1.9289754 1.78977102v4.83238176zm6.5426126-10.18180847v10.18180847h-1.1732944v-10.18180847zm8.948862 9.36646837v-2.62499753h-2.6249975v-1.1136353h2.6249975v-2.6249975h1.1136353v2.6249975h2.6249975v1.1136353h-2.6249975v2.62499753zm10.6392067.8153401h-1.2926124l3.7386328-10.18180847h1.2727261l3.7386328 10.18180847h-1.2926124l-1.0241468-2.88352h-4.1164733zm1.4119305-3.97726893h3.3409059l-1.6306803-4.59374562h-.0795454zm8.6505689-6.20453954v10.18180847h-1.1732943v-10.18180847zm5.468748 2.54545212v.99431723h-1.6306803v4.45454122c0 .9943172.4971586 1.153408 1.0142036 1.153408.2585225 0 .4176132-.0397727.517045-.0596591l.2386361 1.0539763c-.1590908.059659-.4374996.1392044-.8749992.1392044-.9943172 0-2.0681798-.636363-2.0681798-1.9687481v-4.77272272h-1.153408v-.99431723h1.153408v-1.82954371h1.1732943v1.82954371zm8.6505686 6.82101625v-2.62499753h-2.6249975v-1.1136353h2.6249975v-2.6249975h1.1136353v2.6249975h2.6249975v1.1136353h-2.6249975v2.62499753zm10.2215935.8153401v-10.18180847h1.2329534v9.08805947h4.73295v1.093749z"/></defs><g fill="none" fill-rule="evenodd"><g fill-rule="nonzero"><path d="m.5 24h307v20h-307z" fill="#191c21"/><path d="m.5 46h307v20h-307z" fill="#191c21"/><path d="m.5 68h307v20h-307z" fill="#191c21"/><path d="m.5 90h307v20h-307z" fill="#191c21"/><path d="m.5 112h307v20h-307z" fill="#191c21"/><path d="m50.5 46h74v20h-74z" fill="#46b8d5"/><path d="m126.5 46h76v20h-76z" fill="#46b8d5"/><path d="m126.5 68h76v20h-76z" fill="#a646d5"/><path d="m126.5 90h7v20h-7z" fill="#d5af46"/><path d="m164.5 90h7v20h-7z" fill="#d5af46"/><path d="m145.5 90h7v20h-7z" fill="#d5af46"/><path d="m183.5 90h7v20h-7z" fill="#d5af46"/></g><g transform="translate(126.5 2)"><path d="m0 0 20 10-20 10z"/><path d="m2 3.23606491v13.52787019l13.5278702-6.7639351zm-2-3.23606491 20 10-20 10z" fill="#c8cfe6" fill-rule="nonzero"/></g><path d="m126.5 24h2v108h-2z" fill="#c8cfe6" fill-rule="nonzero"/><g transform="translate(96.5 7)"><path d="m3 0c1.25270805.59840671 2.61306621.93849625 4 1 1.38693379-.06150375 2.74729195-.40159329 4-1 1.1045695 0 2 .8954305 2 2l1 6c0 1.1045695-.8954305 2-2 2h-10c-1.1045695 0-2-.8954305-2-2l1-6c0-1.1045695.8954305-2 2-2z"/><path d="m2.9981842 2.17642689-.02539444.15237331-.94519996 5.6711998h9.9448204l-.9452-5.6711998-.0253944-.15237331c-.9210959.35672903-2.42734433.82357311-4.0018158.82357311s-3.08071995-.46684408-4.0018158-.82357311zm.0018158-2.17642689s2 1 4 1 4-1 4-1c1.1045704 0 2 .89542961 2 2l1 6c0 1.10457039-.8954296 2-2 2h-10c-1.10457039 0-2-.89542961-2-2l1-6c0-1.10457039.89542961-2 2-2z" fill="#c8cfe6" fill-rule="nonzero"/></g><circle cx="103.5" cy="12" r="12"/><circle cx="103.5" cy="12" r="11" stroke="#46b8d5" stroke-width="2"/><g fill-rule="nonzero" transform="translate(.5 4)"><use fill="#000" xlink:href="#a"/><use fill="#6b7187" xlink:href="#a"/></g></g></svg>