<svg height="116" viewBox="0 0 373 116" width="373" xmlns="http://www.w3.org/2000/svg"><g fill="#292d34"><path d="m0 0h373v8h-373z"/><path d="m0 18h373v8h-373z"/><path d="m0 36h373v8h-373z"/><path d="m0 54h373v8h-373z"/><path d="m0 63h373v8h-373z"/><path d="m0 99h373v8h-373z"/><path d="m0 108h373v8h-373z"/><path d="m0 81h373v8h-373z"/></g><path d="m0 9h373v8h-373z" fill="#191c21"/><path d="m0 27h373v8h-373z" fill="#191c21"/><path d="m0 45h373v8h-373z" fill="#191c21"/><path d="m0 72h373v8h-373z" fill="#191c21"/><path d="m0 90h373v8h-373z" fill="#191c21"/><path d="m18 72h25v8h-25z" fill="#46b8d5"/><path d="m233 90h27v8h-27z" fill="#46b8d5"/><path d="m272 72h77v8h-77z" fill="#46b8d5"/><path d="m50 54h25v8h-25z" fill="#46b8d5"/><path d="m95.981 45h25v8h-25z" fill="#46b8d5"/><path d="m134 27h25v8h-25z" fill="#46b8d5"/><path d="m165 54h25v8h-25z" fill="#46b8d5"/><g transform="translate(1904 23)"><path d="m-1548.20031738 71.46768188-.20336914-.45681762-2.12561036-4.77455902-3.11755371 3.11754608-.85351562.8535614v-1.20710754-17.00009919-1.28531265l.86853027.94742966 11.00073242 11.99970245.76818848.83787537h-1.13671875-1.00085449-2.92333985l2.17419434 4.8838501.20336914.4567337-.45678711.20337677-2.74047851 1.22040558z"/><path d="m-1547.94689941 70.80750275 2.74047851-1.22039795-2.48730469-5.58720017h3.69323731 1.00085449l-11.00073242-11.99969864v17.00009919l3.63195801-3.63198853zm-.50683594 1.32037353-.40673828-.91365814-1.82971192-4.10991669-2.60302734 2.60310364-1.70715332 1.70713043v-2.41423034-17.00009919-2.57063293l1.73706055 1.89487076 11.00085449 11.99970245 1.53625488 1.67575455h-2.2734375-1.00085449-2.15344238l1.86108398 4.18050384.40661621.91345215-.91333008.40676117-2.74047851 1.22039795z" fill="#fff"/></g><g opacity=".98" transform="translate(1888 23)"><path d="m-1548.20031738 71.46768188-.20336914-.45681762-2.12561036-4.77455902-3.11755371 3.11754608-.85351562.8535614v-1.20710754-17.00009919-1.28531265l.86853027.94742966 11.00073242 11.99970245.76818848.83787537h-1.13671875-1.00085449-2.92333985l2.17419434 4.8838501.20336914.4567337-.45678711.20337677-2.74047851 1.22040558z"/><path d="m-1547.94689941 70.80750275 2.74047851-1.22039795-2.48730469-5.58720017h3.69323731 1.00085449l-11.00073242-11.99969864v17.00009919l3.63195801-3.63198853zm-.50683594 1.32037353-.40673828-.91365814-1.82971192-4.10991669-2.60302734 2.60310364-1.70715332 1.70713043v-2.41423034-17.00009919-2.57063293l1.73706055 1.89487076 11.00085449 11.99970245 1.53625488 1.67575455h-2.2734375-1.00085449-2.15344238l1.86108398 4.18050384.40661621.91345215-.91333008.40676117-2.74047851 1.22039795z" fill="#fff"/></g><g opacity=".6" transform="translate(1872 23)"><path d="m-1548.20031738 71.46768188-.20336914-.45681762-2.12561036-4.77455902-3.11755371 3.11754608-.85351562.8535614v-1.20710754-17.00009919-1.28531265l.86853027.94742966 11.00073242 11.99970245.76818848.83787537h-1.13671875-1.00085449-2.92333985l2.17419434 4.8838501.20336914.4567337-.45678711.20337677-2.74047851 1.22040558z"/><path d="m-1547.94689941 70.80750275 2.74047851-1.22039795-2.48730469-5.58720017h3.69323731 1.00085449l-11.00073242-11.99969864v17.00009919l3.63195801-3.63198853zm-.50683594 1.32037353-.40673828-.91365814-1.82971192-4.10991669-2.60302734 2.60310364-1.70715332 1.70713043v-2.41423034-17.00009919-2.57063293l1.73706055 1.89487076 11.00085449 11.99970245 1.53625488 1.67575455h-2.2734375-1.00085449-2.15344238l1.86108398 4.18050384.40661621.91345215-.91333008.40676117-2.74047851 1.22039795z" fill="#fff"/></g><g opacity=".4" transform="translate(1856 23)"><path d="m-1548.20031738 71.46768188-.20336914-.45681762-2.12561036-4.77455902-3.11755371 3.11754608-.85351562.8535614v-1.20710754-17.00009919-1.28531265l.86853027.94742966 11.00073242 11.99970245.76818848.83787537h-1.13671875-1.00085449-2.92333985l2.17419434 4.8838501.20336914.4567337-.45678711.20337677-2.74047851 1.22040558z"/><path d="m-1547.94689941 70.80750275 2.74047851-1.22039795-2.48730469-5.58720017h3.69323731 1.00085449l-11.00073242-11.99969864v17.00009919l3.63195801-3.63198853zm-.50683594 1.32037353-.40673828-.91365814-1.82971192-4.10991669-2.60302734 2.60310364-1.70715332 1.70713043v-2.41423034-17.00009919-2.57063293l1.73706055 1.89487076 11.00085449 11.99970245 1.53625488 1.67575455h-2.2734375-1.00085449-2.15344238l1.86108398 4.18050384.40661621.91345215-.91333008.40676117-2.74047851 1.22039795z" fill="#fff"/></g><g opacity=".2" transform="translate(1840 23)"><path d="m-1548.20031738 71.46768188-.20336914-.45681762-2.12561036-4.77455902-3.11755371 3.11754608-.85351562.8535614v-1.20710754-17.00009919-1.28531265l.86853027.94742966 11.00073242 11.99970245.76818848.83787537h-1.13671875-1.00085449-2.92333985l2.17419434 4.8838501.20336914.4567337-.45678711.20337677-2.74047851 1.22040558z"/><path d="m-1547.94689941 70.80750275 2.74047851-1.22039795-2.48730469-5.58720017h3.69323731 1.00085449l-11.00073242-11.99969864v17.00009919l3.63195801-3.63198853zm-.50683594 1.32037353-.40673828-.91365814-1.82971192-4.10991669-2.60302734 2.60310364-1.70715332 1.70713043v-2.41423034-17.00009919-2.57063293l1.73706055 1.89487076 11.00085449 11.99970245 1.53625488 1.67575455h-2.2734375-1.00085449-2.15344238l1.86108398 4.18050384.40661621.91345215-.91333008.40676117-2.74047851 1.22039795z" fill="#fff"/></g></svg>