<svg height="108" viewBox="0 0 220 108" width="220" xmlns="http://www.w3.org/2000/svg"><g fill="#191c21"><path d="m0 0h220v20h-220z"/><path d="m0 22h220v20h-220z"/><path d="m0 44h220v20h-220z"/><path d="m0 66h220v20h-220z"/><path d="m0 88h220v20h-220z"/></g><path d="m50 22h74v20h-74z" fill="#46b8d5"/><path d="m126 66h62v20h-62z" fill="#46b8d5" opacity=".2"/><path d="m126 22h76v20h-76z" fill="#46b8d5"/><path d="m126 44h76v20h-76z" fill="#a646d5"/><path d="m126 66h7v20h-7z" fill="#d5af46"/><path d="m164 66h7v20h-7z" fill="#d5af46"/><path d="m145 66h7v20h-7z" fill="#d5af46"/><path d="m183 66h7v20h-7z" fill="#d5af46"/><path d="m190 66h30v20h-30z" fill="#46b8d5" opacity=".2"/><path d="m202 88h18v20h-18z" fill="#a646d5" opacity=".2"/><g transform="translate(1579 -37)"><path d="m-1548.20031738 71.46768188-.20336914-.45681762-2.12561036-4.77455902-3.11755371 3.11754608-.85351562.8535614v-1.20710754-17.00009919-1.28531265l.86853027.94742966 11.00073242 11.99970245.76818848.83787537h-1.13671875-1.00085449-2.92333985l2.17419434 4.8838501.20336914.4567337-.45678711.20337677-2.74047851 1.22040558z"/><path d="m-1547.94689941 70.80750275 2.74047851-1.22039795-2.48730469-5.58720017h3.69323731 1.00085449l-11.00073242-11.99969864v17.00009919l3.63195801-3.63198853zm-.50683594 1.32037353-.40673828-.91365814-1.82971192-4.10991669-2.60302734 2.60310364-1.70715332 1.70713043v-2.41423034-17.00009919-2.57063293l1.73706055 1.89487076 11.00085449 11.99970245 1.53625488 1.67575455h-2.2734375-1.00085449-2.15344238l1.86108398 4.18050384.40661621.91345215-.91333008.40676117-2.74047851 1.22039795z" fill="#fff"/></g><g opacity=".8" transform="translate(1594 -21)"><path d="m-1548.20031738 71.46768188-.20336914-.45681762-2.12561036-4.77455902-3.11755371 3.11754608-.85351562.8535614v-1.20710754-17.00009919-1.28531265l.86853027.94742966 11.00073242 11.99970245.76818848.83787537h-1.13671875-1.00085449-2.92333985l2.17419434 4.8838501.20336914.4567337-.45678711.20337677-2.74047851 1.22040558z"/><path d="m-1547.94689941 70.80750275 2.74047851-1.22039795-2.48730469-5.58720017h3.69323731 1.00085449l-11.00073242-11.99969864v17.00009919l3.63195801-3.63198853zm-.50683594 1.32037353-.40673828-.91365814-1.82971192-4.10991669-2.60302734 2.60310364-1.70715332 1.70713043v-2.41423034-17.00009919-2.57063293l1.73706055 1.89487076 11.00085449 11.99970245 1.53625488 1.67575455h-2.2734375-1.00085449-2.15344238l1.86108398 4.18050384.40661621.91345215-.91333008.40676117-2.74047851 1.22039795z" fill="#fff"/></g><g opacity=".6" transform="translate(1609 -5)"><path d="m-1548.20031738 71.46768188-.20336914-.45681762-2.12561036-4.77455902-3.11755371 3.11754608-.85351562.8535614v-1.20710754-17.00009919-1.28531265l.86853027.94742966 11.00073242 11.99970245.76818848.83787537h-1.13671875-1.00085449-2.92333985l2.17419434 4.8838501.20336914.4567337-.45678711.20337677-2.74047851 1.22040558z"/><path d="m-1547.94689941 70.80750275 2.74047851-1.22039795-2.48730469-5.58720017h3.69323731 1.00085449l-11.00073242-11.99969864v17.00009919l3.63195801-3.63198853zm-.50683594 1.32037353-.40673828-.91365814-1.82971192-4.10991669-2.60302734 2.60310364-1.70715332 1.70713043v-2.41423034-17.00009919-2.57063293l1.73706055 1.89487076 11.00085449 11.99970245 1.53625488 1.67575455h-2.2734375-1.00085449-2.15344238l1.86108398 4.18050384.40661621.91345215-.91333008.40676117-2.74047851 1.22039795z" fill="#fff"/></g><g opacity=".4" transform="translate(1624 11)"><path d="m-1548.20031738 71.46768188-.20336914-.45681762-2.12561036-4.77455902-3.11755371 3.11754608-.85351562.8535614v-1.20710754-17.00009919-1.28531265l.86853027.94742966 11.00073242 11.99970245.76818848.83787537h-1.13671875-1.00085449-2.92333985l2.17419434 4.8838501.20336914.4567337-.45678711.20337677-2.74047851 1.22040558z"/><path d="m-1547.94689941 70.80750275 2.74047851-1.22039795-2.48730469-5.58720017h3.69323731 1.00085449l-11.00073242-11.99969864v17.00009919l3.63195801-3.63198853zm-.50683594 1.32037353-.40673828-.91365814-1.82971192-4.10991669-2.60302734 2.60310364-1.70715332 1.70713043v-2.41423034-17.00009919-2.57063293l1.73706055 1.89487076 11.00085449 11.99970245 1.53625488 1.67575455h-2.2734375-1.00085449-2.15344238l1.86108398 4.18050384.40661621.91345215-.91333008.40676117-2.74047851 1.22039795z" fill="#fff"/></g><g opacity=".2" transform="translate(1639 27)"><path d="m-1548.20031738 71.46768188-.20336914-.45681762-2.12561036-4.77455902-3.11755371 3.11754608-.85351562.8535614v-1.20710754-17.00009919-1.28531265l.86853027.94742966 11.00073242 11.99970245.76818848.83787537h-1.13671875-1.00085449-2.92333985l2.17419434 4.8838501.20336914.4567337-.45678711.20337677-2.74047851 1.22040558z"/><path d="m-1547.94689941 70.80750275 2.74047851-1.22039795-2.48730469-5.58720017h3.69323731 1.00085449l-11.00073242-11.99969864v17.00009919l3.63195801-3.63198853zm-.50683594 1.32037353-.40673828-.91365814-1.82971192-4.10991669-2.60302734 2.60310364-1.70715332 1.70713043v-2.41423034-17.00009919-2.57063293l1.73706055 1.89487076 11.00085449 11.99970245 1.53625488 1.67575455h-2.2734375-1.00085449-2.15344238l1.86108398 4.18050384.40661621.91345215-.91333008.40676117-2.74047851 1.22039795z" fill="#fff"/></g></svg>