<svg height="128" viewBox="0 0 107 128" width="107" xmlns="http://www.w3.org/2000/svg"><g fill="#292d34"><path d="m0 21h107v8h-107z"/><path d="m0 39h107v8h-107z"/><path d="m0 57h107v8h-107z"/><path d="m0 75h107v8h-107z"/><path d="m0 84h107v8h-107z"/><path d="m0 12h107v8h-107z"/><path d="m0 120h107v8h-107z"/><path d="m0 102h107v8h-107z"/></g><path d="m0 30h107v8h-107z" fill="#191c21"/><path d="m0 48h107v8h-107z" fill="#191c21"/><path d="m0 66h107v8h-107z" fill="#191c21"/><path d="m0 93h107v8h-107z" fill="#191c21"/><path d="m0 111h107v8h-107z" fill="#191c21"/><path d="m54 120h53v8h-53z" fill="#46b8d5"/><path d="m54 93h53v8h-53z" fill="#46b8d5"/><path d="m54 75h53v8h-53z" fill="#46b8d5"/><path d="m54 57h53v8h-53z" fill="#46b8d5"/><path d="m54 48h53v8h-53z" fill="#46b8d5"/><path d="m54 30h53v8h-53z" fill="#46b8d5"/><path d="m54 12h53v8h-53z" fill="#46b8d5"/><path d="m54 102h53v8h-53z" fill="#46b8d5"/><g fill="none" stroke="#46b8d5" stroke-width="2"><circle cx="54" cy="12" r="7" stroke="none"/><circle cx="54" cy="12" fill="none" r="6"/></g><g fill="none" opacity=".5" stroke="#46b8d5" stroke-width="2"><circle cx="54" cy="12" r="12" stroke="none"/><circle cx="54" cy="12" fill="none" r="11"/></g><g transform="translate(1609 -38)"><path d="m-1548.20031738 71.46768188-.20336914-.45681762-2.12561036-4.77455902-3.11755371 3.11754608-.85351562.8535614v-1.20710754-17.00009919-1.28531265l.86853027.94742966 11.00073242 11.99970245.76818848.83787537h-1.13671875-1.00085449-2.92333985l2.17419434 4.8838501.20336914.4567337-.45678711.20337677-2.74047851 1.22040558z"/><path d="m-1547.94689941 70.80750275 2.74047851-1.22039795-2.48730469-5.58720017h3.69323731 1.00085449l-11.00073242-11.99969864v17.00009919l3.63195801-3.63198853zm-.50683594 1.32037353-.40673828-.91365814-1.82971192-4.10991669-2.60302734 2.60310364-1.70715332 1.70713043v-2.41423034-17.00009919-2.57063293l1.73706055 1.89487076 11.00085449 11.99970245 1.53625488 1.67575455h-2.2734375-1.00085449-2.15344238l1.86108398 4.18050384.40661621.91345215-.91333008.40676117-2.74047851 1.22039795z" fill="#fff"/></g></svg>