<svg height="85" viewBox="0 0 181 85" width="181" xmlns="http://www.w3.org/2000/svg" xmlns:xlink="http://www.w3.org/1999/xlink"><linearGradient id="a" x1="0%" x2="100%" y1="61.094666%" y2="39.111111%"><stop offset="0" stop-color="#db5bdb"/><stop offset=".439189189" stop-color="#a384fb"/><stop offset="1" stop-color="#41b7c9"/></linearGradient><g fill="none" fill-rule="evenodd"><path d="m1 1h179v83h-179z" fill="#191c21" stroke="#6b7187" stroke-width="2"/><path d="m0 0h181v10h-181z" fill="#6b7187"/><g fill="#191c21"><rect height="6" rx="3" width="6" x="4" y="2"/><rect height="6" rx="3" width="6" x="14" y="2"/><rect height="6" rx="3" width="6" x="24" y="2"/></g><path d="m85.17471 39.9091034v13.0908966h-2.3778386v-10.06107h-.1086647c-.2556816.4026985-1.2336636.97159-2.7038326.97159v-1.9176118c1.8025551 0 2.8636336-1.5085213 2.9147699-2.0838048zm4.7812534 11.5184549c-.7798288 0-1.4126407-.6264198-1.4062486-1.4062486-.0063921-.7670448.6264198-1.3934646 1.4062486-1.3934646.7542607 0 1.3998566.6264198 1.4062487 1.3934646-.0063921.7798288-.651988 1.4062486-1.4062487 1.4062486zm0-6.494312c-.7798288 0-1.4126407-.6264198-1.4062486-1.4062486-.0063921-.7670448.6264198-1.3934646 1.4062486-1.3934646.7542607 0 1.3998566.6264198 1.4062487 1.3934646-.0063921.7798288-.651988 1.4062486-1.4062487 1.4062486zm3.5411948 5.6377787v-1.8856516l5.5546822-8.77627h2.9531226v8.7123496h1.674714v1.949572h-1.674714v2.428975h-2.2627823v-2.428975zm6.2705906-1.949572v-6.0276931h-.1022726l-3.739343 5.9254205v.1022726zm10.5021322 4.5575241c-2.556816 0-4.455252-1.5660496-4.519172-3.739343h2.301134c.083097 1.0738626 1.035511 1.8217312 2.218038 1.8217312 1.399857 0 2.409799-1.0419024 2.403407-2.5056794.006392-1.4829532-1.029119-2.5440317-2.467327-2.5504237-.786221-.0063921-1.617186.3196019-2.058237.8053969l-2.141333-.3515621.683948-6.7499936h7.593743v1.9815322h-5.631387l-.37713 3.4708774h.076704c.485795-.5752836 1.425425-.9971582 2.486503-.9971582 2.377839 0 4.129258 1.8153392 4.129258 4.3338027 0 2.60156-1.930396 4.4808196-4.698149 4.4808196zm8.284094-1.7514188c-.779829 0-1.412641-.6264198-1.406249-1.4062486-.006392-.7670448.62642-1.3934646 1.406249-1.3934646.75426 0 1.399856.6264198 1.406248 1.3934646-.006392.7798288-.651988 1.4062486-1.406248 1.4062486zm0-6.494312c-.779829 0-1.412641-.6264198-1.406249-1.4062486-.006392-.7670448.62642-1.3934646 1.406249-1.3934646.75426 0 1.399856.6264198 1.406248 1.3934646-.006392.7798288-.651988 1.4062486-1.406248 1.4062486zm8.616474 8.3160432c-3.157668 0-5.043319-2.4928953-5.043319-6.7819537.006392-4.2762744 1.898435-6.7372095 5.043319-6.7372095 3.144883 0 5.043319 2.4673272 5.043319 6.7372095 0 4.2954504-1.885652 6.7883458-5.043319 6.7819537zm0-2.0007083c1.636362 0 2.652696-1.6363621 2.652696-4.7812454-.006392-3.1193152-1.022726-4.7620693-2.652696-4.7620693-1.623578 0-2.639912 1.6427541-2.646304 4.7620693-.006393 3.1448833 1.016334 4.7812454 2.646304 4.7812454zm11.716619 1.9303959c-2.556815 0-4.455251-1.5660496-4.519171-3.739343h2.301134c.083096 1.0738626 1.03551 1.8217312 2.218037 1.8217312 1.399857 0 2.409799-1.0419024 2.403407-2.5056794.006392-1.4829532-1.029118-2.5440317-2.467327-2.5504237-.786221-.0063921-1.617186.3196019-2.058237.8053969l-2.141333-.3515621.683948-6.7499936h7.593743v1.9815322h-5.631387l-.37713 3.4708774h.076705c.485795-.5752836 1.425424-.9971582 2.486503-.9971582 2.377839 0 4.129257 1.8153392 4.129257 4.3338027 0 2.60156-1.930396 4.4808196-4.698149 4.4808196z" fill="#c8cfe6" fill-rule="nonzero"/><path d="m53 54v-2h14v2zm-4 0v-14h2v14zm-4.001375 0v-14h2.001375v14zm-4 0v-14h2v14zm-3.998625 0v-14h2v14zm28-4v-2.001h2v2.001zm-6.001125 0v-2.001h-1.998875v-2h2v-1.999h2v2h2v2h-2v2zm-5.998875 0v-2.001h2v2.001zm12-4.001375v-1.998625h2v2zm-12 0v-1.998625h2v2zm0-4v-1.998625h14v2z" fill="url(#a)" fill-rule="nonzero"/></g></svg>