<svg height="100" viewBox="0 0 284 100" width="284" xmlns="http://www.w3.org/2000/svg" xmlns:xlink="http://www.w3.org/1999/xlink"><linearGradient id="a"><stop offset="0" stop-color="#db5bdb"/><stop offset=".586446769" stop-color="#a384fb"/><stop offset="1" stop-color="#41b7c9"/></linearGradient><linearGradient id="b" x1="0%" x2="100%" xlink:href="#a" y1="71.053757%" y2="29.336735%"/><linearGradient id="c" x1="0%" x2="100%" y1="61.094666%" y2="39.111111%"><stop offset="0" stop-color="#db5bdb"/><stop offset=".439189189" stop-color="#a384fb"/><stop offset="1" stop-color="#41b7c9"/></linearGradient><linearGradient id="d" x1="0%" x2="100%" xlink:href="#a" y1="61.094666%" y2="39.111111%"/><g fill="none" fill-rule="evenodd"><rect fill="url(#b)" fill-opacity=".11" height="69" rx="3" stroke="#292d34" stroke-width="3" width="109" x="7.5" y="24.5"/><path d="m63 66v-2h14v2zm-4 0v-14h2v14zm-4.001375 0v-14h2.001375v14zm-4 0v-14h2v14zm-3.998625 0v-14h2v14zm28-4v-2.001h2v2.001zm-6.001125 0v-2.001h-1.998875v-2h2v-1.999h2v2h2v2h-2v2zm-5.998875 0v-2.001h2v2.001zm12-4.001375v-1.998625h2v2zm-12 0v-1.998625h2v2zm0-4v-1.998625h14v2z" fill="url(#c)" fill-rule="nonzero"/><path d="m135 69h148v-68h-148z" fill="url(#d)" fill-opacity=".11" stroke="#292d34" stroke-width="2"/><path d="m134 70h150v4c0 .5522847-.447715 1-1 1h-148c-.552285 0-1-.4477153-1-1z" fill="#191c21"/><path d="m199 75h20v10h-20z" fill="#40434e"/><path d="m199 85h20l-8.522321 7-23.652424 3z" fill="#292d34"/><path d="m211.174745 85h20l-8.522322 7-23.652423 3z" fill="#292d34" transform="matrix(-1 0 0 1 430.174744 0)"/><path d="m210 42v-2h14v2zm-4 0v-14h2v14zm-4.001375 0v-14h2.001375v14zm-4 0v-14h2v14zm-3.998625 0v-14h2v14zm28-4v-2.001h2v2.001zm-6.001125 0v-2.001h-1.998875v-2h2v-1.999h2v2h2v2h-2v2zm-5.998875 0v-2.001h2v2.001zm12-4.001375v-1.998625h2v2zm-12 0v-1.998625h2v2zm0-4v-1.998625h14v2z" fill="url(#c)" fill-rule="nonzero"/><path d="m0 95h124v3c0 1.1045695-.895431 2-2 2h-120c-1.1045695 0-2-.8954305-2-2z" fill="#40434e"/><path d="m55 95h15c0 1.1045695-.8954305 2-2 2h-11c-1.1045695 0-2-.8954305-2-2z" fill="#191c21"/></g></svg>