<svg height="56" viewBox="0 0 120 56" width="120" xmlns="http://www.w3.org/2000/svg" xmlns:xlink="http://www.w3.org/1999/xlink"><linearGradient id="a" x1="0%" x2="100%" y1="61.094666%" y2="39.111111%"><stop offset="0" stop-color="#db5bdb"/><stop offset=".439189189" stop-color="#a384fb"/><stop offset="1" stop-color="#41b7c9"/></linearGradient><path d="m677 226v-8h56v8zm-16 0v-56h8v56zm-16.0055 0v-56h8.0055v56zm-16 0v-56h8v56zm-15.9945 0v-56h8v56zm112-16v-8.004h8v8.004zm-24.0045 0v-8.004h-7.9955v-8h8v-7.996h8v8h8v8h-8v8zm-23.9955 0v-8.004h8v8.004zm48-16.0055v-7.9945h8v8zm-48 0v-7.9945h8v8zm0-16v-7.9945h56v8z" fill="url(#a)" transform="translate(-613 -170)"/></svg>